
<svg xmlns="http://www.w3.org/2000/svg" version="1.1" xmlns:xlink="http://www.w3.org/1999/xlink" preserveAspectRatio="none" x="0px" y="0px" width="16px" height="16px" viewBox="0 0 16 16">
<defs>
<g id="Layer0_0_FILL">
<path fill="#FFFFFF" fill-opacity="0.2" stroke="none" d="
M 13.35 7.65
Q 13.3396484375 7.5177734375 13.3 7.4 13.1025390625 5.645703125 11.8 4.25 10.25 2.75 8.05 2.75 5.9 2.75 4.25 4.25 2.75 5.9 2.75 8.05 2.75 8.45 2.8 8.8 2.8138671875 8.89375 2.8 8.95 3.1162109375 10.5716796875 4.25 11.8 5.9 13.35 8.05 13.35 10.25 13.35 11.8 11.8 13.35 10.25 13.35 8.05 13.35 7.85 13.35 7.65 Z"/>
</g>

<path id="Layer0_0_1_STROKES" stroke="#FFFFFF" stroke-width="1.5" stroke-linejoin="round" stroke-linecap="round" fill="none" d="
M 13.325 7.4
Q 13.66015625 7.4794921875 14 7.6 14.65 7.85 15.3 8.2
M 13.325 7.4
Q 13.3396484375 7.5177734375 13.35 7.65 13.35 7.85 13.35 8.05 13.35 10.25 11.8 11.8 10.25 13.35 8.05 13.35 5.9 13.35 4.25 11.8 3.1162109375 10.5716796875 2.825 8.975 2.456640625 8.943359375 2.1 8.85 1.4 8.65 0.7 8.2
M 2.825 8.975
Q 2.8138671875 8.89375 2.8 8.8 2.75 8.45 2.75 8.05 2.75 5.9 4.25 4.25 5.9 2.75 8.05 2.75 10.25 2.75 11.8 4.25 13.1025390625 5.645703125 13.325 7.4"/>
</defs>

<g transform="matrix( 1, 0, 0, 1, 0,0) ">
<use xlink:href="#Layer0_0_FILL"/>

<use xlink:href="#Layer0_0_1_STROKES"/>
</g>
</svg>
