
<svg xmlns="http://www.w3.org/2000/svg" version="1.1" xmlns:xlink="http://www.w3.org/1999/xlink" preserveAspectRatio="none" x="0px" y="0px" width="16px" height="16px" viewBox="0 0 16 16">
<defs>
<g id="Layer0_0_FILL">
<path fill="#FFFFFF" fill-opacity="0.996078431372549" stroke="none" d="
M 11.4 12.1
Q 11.4 11.65 11.05 11.1 10.55 10.3 10.05 9.65
L 10.05 2.15
Q 10 1.95 10 1.8 9.8 0.85 8.85 0.4 7.95 0 7.05 0.45 6 0.95 5.85 2.15 5.85 2.2 5.85 2.3
L 5.85 9.65
Q 5.35 10.15 5.05 10.8 4.6 11.55 4.6 12.45 4.55 13.45 5.15 14.35 5.75 15.15 6.65 15.5 7.55 15.85 8.3 15.75 9.3 15.65 10.1 15.05 10.8 14.4 11.15 13.5 11.45 12.85 11.4 12.1
M 7.3 4.25
Q 7.3 4.15 7.35 4.1 7.7 3.55 8.25 3.8 8.35 3.85 8.5 3.95 8.7 4 8.7 4.45 8.8 7 8.8 9.55
L 8.8 9.65
Q 8.8 9.95 8.9 10.3 8.9 10.35 9 10.45 9.15 10.6 9.35 10.8 10.25 11.55 10.1 12.6 10 13.25 9.5 13.7 8.8 14.55 7.8 14.4 6.8 14.35 6.25 13.6 5.6 12.5 6.15 11.45 6.6 10.7 7.25 10.25
L 7.25 9.55
Q 7.25 7.05 7.3 4.25 Z"/>
</g>
</defs>

<g transform="matrix( 1, 0, 0, 1, 0,0) ">
<use xlink:href="#Layer0_0_FILL"/>
</g>
</svg>
