
<svg xmlns="http://www.w3.org/2000/svg" version="1.1" xmlns:xlink="http://www.w3.org/1999/xlink" preserveAspectRatio="none" x="0px" y="0px" width="128px" height="128px" viewBox="0 0 128 128">
<defs>
<g id="Layer0_0_FILL">
<path fill="#D1532A" fill-opacity="0.996078431372549" stroke="none" d="
M 108.55 22.4
Q 108.2 22.1 107.5 22.35 103.05 23.95 99.3 27.05
L 91.25 17.8
Q 92.6 12.7 90.1 8.8 89.15 7.3 87.45 6.15 83.4 3.4 79.6 3.4 76.7 3.4 73.95 5 72.6 5.75 71.8 7.25 70.1 9.95 69.15 13.1
L 59.4 13.35
Q 57.9 7.25 53.5 3.85 52.8 3.3 51.8 3.3 51.55 3.3 51.45 3.35 42.25 4.55 37.2 10.85 36.65 11.65 37.4 12.45
L 37.8 19.35 29.6 26.95
Q 25.2 23.1 21 23.5 20 23.55 19.1 23.9 16.35 24.75 14.6 27.3 12.5 30.25 10.25 33.05 9.35 34.1 9.4 35.3 9.35 35.6 9.55 36.05 11 41.9 15.4 45.95
L 15.4 46
Q 15.4 46.2 15.4 46.4 15.25 52.95 15.5 59.25 15.7 64.6 16.25 69.9
L 16.6 69.9
Q 16.8 72 17.15 74.2 17.25 74.55 17.95 74.7 20.45 75 23 75.2 27.15 75.45 31.25 75.4 34.15 76.65 33.8 79 33.35 81.4 33.6 81.6
L 33.7 82.3
Q 36.15 85.05 39.45 86.05 42.05 86.75 45.25 86.35 47.85 85.9 50.45 86.35 52.55 86.7 54.65 86.35
L 55.9 85.2
Q 56.5 84.45 56.95 83.7
L 58.1 78.8 59 77.9 71.15 78
Q 71.85 81.65 73.75 84.75 74.3 85.6 74.95 86.05 76.1 86.8 77.2 86.85 77.4 86.8 77.5 86.8 78.8 86.65 84.2 86.15 85.5 86 86.45 85.9 91.05 86 95.6 83.9 96.7 83.4 97.35 82.35
L 97.4 77.3
Q 97.2 75.65 104.4 75.05 105.05 75.2 105.8 75.35 109.3 75.65 112.5 73.45 113.45 72.75 113.65 71.5 114.35 68 114.55 64.55
L 114.7 64.55
Q 114.7 63.4 114.7 62.25 114.7 61.5 114.75 60.8
L 114.65 60.8
Q 114.55 60.05 114.55 59.25 114.35 56.35 113.9 53.55 113.35 50 113.6 46.4 113.6 46.2 113.6 46 113.55 45.9 113.6 45.75 119.4 42.1 119.5 36.4 119.5 35.65 119.4 35 119.25 33.75 118.6 32.65 114.35 26.4 108.55 22.4
M 89.35 68.3
Q 87.1 69 85.35 67 80.6 61.35 82.8 55.55 83.25 54.2 84.2 52.85 86.05 51.3 89.95 49.5 93.9 47.85 100.25 53.8 100.75 54.7 101.15 55.55 104.9 63.9 96.45 66.7 94.7 66.95 92.65 67.65 90.6 68.4 89.35 68.3
M 27.15 55.55
Q 28.65 51.5 33.2 50.1 34.95 49.55 36.85 49.65 42.35 49.9 44.5 55.5
L 44.5 55.55
Q 47.8 64.3 39.95 68.4
L 39 68.7
Q 36.95 68.1 34.8 68 24.5 67.3 26.6 57.3 26.8 56.3 27.15 55.55 Z"/>
</g>
</defs>

<g transform="matrix( 1.09173583984375, 0, 0, 1.09173583984375, -5.9,12.55) ">
<use xlink:href="#Layer0_0_FILL"/>
</g>
</svg>
