
<svg xmlns="http://www.w3.org/2000/svg" version="1.1" xmlns:xlink="http://www.w3.org/1999/xlink" preserveAspectRatio="none" x="0px" y="0px" width="16px" height="16px" viewBox="0 0 16 16">
<defs>
<g id="Layer0_0_FILL">
<path fill="#FFFFFF" stroke="none" d="
M -37.7 39.15
L -38.5 41.75
Q -39.7728515625 42.12734375 -40.95 42.8
L -43.3 41.5
Q -44.1607421875 42.1607421875 -44.95 42.95 -45.7333984375 43.7537109375 -46.35 44.6
L -45.1 47
Q -45.7412109375 48.1359375 -46.1 49.4
L -48.65 50.2
Q -48.8 51.2439453125 -48.8 52.35 -48.8 53.49453125 -48.65 54.55
L -46.05 55.35
Q -45.714453125 56.608203125 -45.1 57.7
L -46.4 60.15
Q -45.7509765625 61.0783203125 -44.95 61.9 -44.1841796875 62.646484375 -43.35 63.25
L -40.9 61.9
Q -39.75625 62.5654296875 -38.55 62.9
L -37.7 65.55
Q -36.5833984375 65.75 -35.4 65.75 -34.36484375 65.75 -33.4 65.6
L -32.55 62.9
Q -31.2892578125 62.591796875 -30.15 61.95
L -27.65 63.3
Q -26.772265625 62.672265625 -26 61.9 -25.2279296875 61.1279296875 -24.6 60.3
L -25.95 57.75
Q -25.276953125 56.6236328125 -24.95 55.35
L -22.2 54.5
Q -22.05 53.4609375 -22.05 52.35 -22.05 51.277734375 -22.2 50.25
L -24.95 49.4
Q -25.261328125 48.130078125 -25.95 46.95
L -24.65 44.5
Q -25.2458984375 43.7041015625 -26 42.95 -26.7958984375 42.1333984375 -27.7 41.45
L -30.15 42.75
Q -31.2787109375 42.1154296875 -32.6 41.75
L -33.4 39.15
Q -34.3642578125 39 -35.4 39 -36.583984375 39 -37.7 39.15
M -35.45 46.95
Q -33.2 46.95 -31.65 48.55 -30.05 50.15 -30.05 52.35 -30.05 54.6 -31.65 56.2 -33.2 57.8 -35.45 57.8 -37.7 57.8 -39.3 56.2 -40.9 54.6 -40.9 52.35 -40.9 50.15 -39.3 48.55 -37.7 46.95 -35.45 46.95 Z"/>
</g>

<g id="Layer0_1_FILL">
<path fill="#8DA5F3" stroke="none" d="
M 4.25 5.45
L 4.2 5.45
Q 3.95 5.75 3.2 6.5 2.7 7 2.7 7.1 2.7 7.4 2.95 7.7 3.05 7.8 3.5 8.25 3.9 8.6 4.1 8.9 4.4 9.3 4.5 9.75 4.55 10.35 3.75 10.8 3.4 11.05 2.75 11.3 2.6 11.4 1.95 11.7 1.4 11.95 1.1 12.15 0.15 12.8 0.15 14.05 0.15 14.95 0.9 15.6 1.55 16.1 2.3 16.1 2.55 16.1 2.7 16.1 2.9 16.05 3.05 16 3.8 15.55 4.4 14.65 4.75 14.15 5.4 12.85 5.75 12.2 6.15 11.9 6.35 11.75 6.55 11.75 6.594921875 11.75 6.65 11.75 6.66796875 11.7033203125 6.7 11.65 7.05 10.8 7.6 10.1 7.65 9.85 7.9 9.8 8.0984375 9.6015625 8.3 9.5 7.9658203125 9.1658203125 7.55 8.75 5.6 6.8 4.25 5.45
M 15.3 6.1
Q 15.5423828125 6.1 15.75 6.1 15.7 6.1 15.3 5.7
L 14.9 5.3
Q 14.85 5.25 14.7 5.2 14.6 5.15 14.55 5.15 14.25 5.15 13.35 5.85 12.8 6.25 12.7 6.3 12.4 6.55 12.35 6.55
L 12.35 6.5
Q 12.9 5.75 13.05 5.5 13.7 4.55 13.7 4.25 13.7 4.15 13.1 3.5 12.95 3.3 12.45 2.8 12.05 2.35 11.65 2.05 11.35 1.85 11.2 1.85 11.1 1.85 10.95 1.95 10.75 2.05 10.6 2.05
L 10.7 1.8
Q 10.8 1.5 10.8 1.45 10.8 1.3 10.65 1.1 10.55 0.95 10.35 0.75 9.9 0.25 9.6 0.25 9.35 0.25 9 0.6 8.8 0.8 8.5 1.15
L 7.85 1.85
Q 7.15 2.55 5.35 4.3
L 9.35 8.3
Q 9.531640625 8.0962890625 9.8 7.95 9.8 7.9 9.85 7.9
L 9.9 7.85
Q 10.6 7.25 11.5 6.95 11.8 6.8 12.1 6.8 12.3 6.8 12.45 6.9 12.75 6.95 13.05 7.25 13.15 6.75 13.45 6.55 13.55 6.45 13.65 6.45 13.85 6.3 14 6.25 14.15 6.15 14.3 6.15 14.7 6.1 15.3 6.1 Z"/>
</g>

<g id="Layer0_2_FILL">
<path fill="#F3FFE5" stroke="none" d="
M 51.1 35.75
L 54.2 25.7 47 33.35 44.55 23.15 42.15 33.35 35.05 25.7 38.1 35.75 28.05 32.7 35.7 39.85 25.45 42.3 35.7 44.7 28.05 51.85 38.1 48.75 35.05 58.8 42.15 51.15 44.6 61.4 47 51.15 54.2 58.8 51.1 48.75 61.15 51.85 53.5 44.7 63.7 42.3 53.5 39.85 61.15 32.7 51.1 35.75 Z"/>
</g>

<g id="Layer0_3_FILL">
<path fill="#75A636" stroke="none" d="
M 12 33.7
Q 6.45 33.7 2.55 37.6 -1.35 41.5 -1.35 47.05 -1.35 52.6 2.55 56.5 6.45 60.4 12 60.4 17.55 60.4 21.45 56.5 25.35 52.6 25.35 47.05 25.35 41.5 21.45 37.6 17.55 33.7 12 33.7
M 5.45 47.05
Q 5.45 44.35 7.35 42.4 9.3 40.45 12.05 40.45 14.8 40.45 16.7 42.4 18.65 44.35 18.65 47.05 18.65 49.8 16.7 51.75 14.8 53.65 12.05 53.65 9.3 53.65 7.35 51.75 5.45 49.8 5.45 47.05 Z"/>
</g>

<g id="Layer0_4_FILL">
<path fill="#75A636" stroke="none" d="
M 12 33.7
Q 6.45 33.7 2.55 37.6 -1.35 41.5 -1.35 47.05 -1.35 52.6 2.55 56.5 6.45 60.4 12 60.4 17.55 60.4 21.45 56.5 25.35 52.6 25.35 47.05 25.35 41.5 21.45 37.6 17.55 33.7 12 33.7
M 5.45 47.05
Q 5.45 44.35 7.35 42.4 9.3 40.45 12.05 40.45 14.8 40.45 16.7 42.4 18.65 44.35 18.65 47.05 18.65 49.8 16.7 51.75 14.8 53.65 12.05 53.65 9.3 53.65 7.35 51.75 5.45 49.8 5.45 47.05 Z"/>
</g>

<g id="Layer0_5_FILL">
<path fill="#FFFFFF" stroke="none" d="
M -35.45 46.95
Q -37.7 46.95 -39.3 48.55 -40.9 50.15 -40.9 52.35 -40.9 54.6 -39.3 56.2 -37.7 57.8 -35.45 57.8 -33.2 57.8 -31.65 56.2 -30.05 54.6 -30.05 52.35 -30.05 50.15 -31.65 48.55 -33.2 46.95 -35.45 46.95 Z"/>
</g>

<g id="Symbol_2_0_Layer0_1_FILL">
<path fill="#8DA5F3" stroke="none" d="
M 2.05 -13.2
Q 1.05 -13.35 0 -13.35 -1.2 -13.35 -2.3 -13.15
L -3.1 -10.55
Q -4.35 -10.2 -5.5 -9.55
L -7.9 -10.8
Q -8.75 -10.2 -9.55 -9.4 -10.35 -8.6 -10.95 -7.7
L -9.7 -5.35
Q -10.35 -4.2 -10.65 -2.95
L -13.25 -2.15
Q -13.4 -1.1 -13.4 0 -13.4 1.15 -13.25 2.25
L -10.65 3.05
Q -10.3 4.25 -9.65 5.4
L -10.95 7.85
Q -10.35 8.75 -9.55 9.55 -8.8 10.3 -7.95 10.9
L -5.45 9.6
Q -4.35 10.2 -3.1 10.55
L -2.3 13.25
Q -1.2 13.4 0 13.4 1.05 13.4 2 13.3
L 2.85 10.6
Q 4.1 10.25 5.25 9.6
L 7.8 10.95
Q 8.65 10.3 9.4 9.55 10.15 8.8 10.8 7.95
L 9.45 5.45
Q 10.1 4.25 10.5 3
L 13.2 2.15
Q 13.35 1.1 13.35 0 13.35 -1.05 13.2 -2.05
L 10.5 -2.9
Q 10.15 -4.2 9.5 -5.35
L 10.8 -7.8
Q 10.15 -8.65 9.4 -9.4 8.6 -10.2 7.75 -10.85
L 5.3 -9.55
Q 4.1 -10.25 2.85 -10.55
L 2.05 -13.2
M 5.35 0
Q 5.35 2.25 3.75 3.85 2.2 5.45 -0.05 5.45 -2.3 5.45 -3.9 3.85 -5.5 2.25 -5.5 0 -5.5 -2.2 -3.9 -3.8 -2.3 -5.4 -0.05 -5.4 2.2 -5.4 3.75 -3.8 5.35 -2.2 5.35 0 Z"/>
</g>

<g id="Layer0_7_FILL">
<path fill="#8DA5F3" stroke="none" d="
M 14.1 8.45
Q 13.35 8.55 12.75 8.8
L 11.9 7.95
Q 11.2 8.25 10.55 8.75
L 10.9 9.9
Q 10.6 10.1 10.35 10.35 10.1 10.6 9.85 10.9
L 8.75 10.55
Q 8.3 11.15 7.95 11.9
L 8.8 12.7
Q 8.5 13.35 8.45 14.1
L 7.35 14.35
Q 7.25 14.75 7.25 15.15 7.25 15.6 7.35 16
L 13.15 16
Q 13 15.6103515625 13 15.15 13 14.25 13.6 13.65 14.25 13 15.2 13 15.6572265625 13 16.05 13.15
L 16.05 7.65 15.95 7.3
Q 15.6 7.25 15.2 7.25 14.75 7.25 14.35 7.3
L 14.1 8.45 Z"/>
</g>

<path id="Symbol_2_0_Layer0_0_1_STROKES" stroke="#FFFFFF" stroke-width="5" stroke-linejoin="round" stroke-linecap="round" fill="none" d="
M 13.35 0
Q 13.35 1.1 13.2 2.15
L 10.5 3
Q 10.1 4.25 9.45 5.45
L 10.8 7.95
Q 10.15 8.8 9.4 9.55 8.65 10.3 7.8 10.95
L 5.25 9.6
Q 4.1 10.25 2.85 10.6
L 2 13.3
Q 1.05 13.4 0 13.4 -1.2 13.4 -2.3 13.25
L -3.1 10.55
Q -4.35 10.2 -5.45 9.6
L -7.95 10.9
Q -8.8 10.3 -9.55 9.55 -10.35 8.75 -10.95 7.85
L -9.65 5.4
Q -10.3 4.25 -10.65 3.05
L -13.25 2.25
Q -13.4 1.15 -13.4 0 -13.4 -1.1 -13.25 -2.15
L -10.65 -2.95
Q -10.35 -4.2 -9.7 -5.35
L -10.95 -7.7
Q -10.35 -8.6 -9.55 -9.4 -8.75 -10.2 -7.9 -10.8
L -5.5 -9.55
Q -4.35 -10.2 -3.1 -10.55
L -2.3 -13.15
Q -1.2 -13.35 0 -13.35 1.05 -13.35 2.05 -13.2
L 2.85 -10.55
Q 4.1 -10.25 5.3 -9.55
L 7.75 -10.85
Q 8.6 -10.2 9.4 -9.4 10.15 -8.65 10.8 -7.8
L 9.5 -5.35
Q 10.15 -4.2 10.5 -2.9
L 13.2 -2.05
Q 13.35 -1.05 13.35 0 Z
M 5.35 0
Q 5.35 2.25 3.75 3.85 2.2 5.45 -0.05 5.45 -2.3 5.45 -3.9 3.85 -5.5 2.25 -5.5 0 -5.5 -2.2 -3.9 -3.8 -2.3 -5.4 -0.05 -5.4 2.2 -5.4 3.75 -3.8 5.35 -2.2 5.35 0 Z"/>
</defs>

<g transform="matrix( 1, 0, 0, 1, 0,0) ">
<use xlink:href="#Layer0_0_FILL"/>
</g>

<g transform="matrix( 1, 0, 0, 1, 0,0) ">
<use xlink:href="#Layer0_1_FILL"/>
</g>

<g transform="matrix( 1, 0, 0, 1, 32.75,20.65) ">
<use xlink:href="#Layer0_2_FILL"/>
</g>

<g transform="matrix( 2.0280303955078125, 0, 0, 2.0280303955078125, 53,-32.5) ">
<use xlink:href="#Layer0_3_FILL"/>
</g>

<g transform="matrix( 0.85906982421875, 0, 0, 0.85906982421875, 67,22.5) ">
<use xlink:href="#Layer0_4_FILL"/>
</g>

<g transform="matrix( 0.611114501953125, 0, 0, 0.611114501953125, -13.85,20.4) ">
<use xlink:href="#Layer0_5_FILL"/>
</g>

<g transform="matrix( 0.3506317138671875, 0, 0, 0.3506317138671875, -34.75,0.7) ">
<g transform="matrix( 1, 0, 0, 1, 0,0) ">
<use xlink:href="#Symbol_2_0_Layer0_0_1_STROKES"/>
</g>

<g transform="matrix( 1, 0, 0, 1, 0,0) ">
<use xlink:href="#Symbol_2_0_Layer0_1_FILL"/>
</g>
</g>

<g transform="matrix( 1, 0, 0, 1, 0,0) ">
<use xlink:href="#Layer0_7_FILL"/>
</g>
</svg>
