
<svg xmlns="http://www.w3.org/2000/svg" version="1.1" xmlns:xlink="http://www.w3.org/1999/xlink" preserveAspectRatio="none" x="0px" y="0px" width="16px" height="16px" viewBox="0 0 16 16">
<defs>
<g id="Layer1_0_FILL">
<path fill="#8DA5F3" stroke="none" d="
M 4.15 5.25
L 4.1 5.25
Q 3.8 5.55 3.1 6.3 2.6 6.8 2.6 6.95 2.6 7.2 2.85 7.5 2.95 7.65 3.4 8.05 3.8 8.45 4 8.7 4.3 9.15 4.4 9.6 4.45 10.2 3.65 10.65 3.25 10.9 2.65 11.15 2.45 11.25 1.85 11.55 1.25 11.8 0.95 12 0 12.7 0 13.95 0 14.7994140625 0.65 15.35
L 7.45 8.55 7.45 8.55
Q 5.5 6.65 4.15 5.25
M 11.15 1.6
Q 11.1 1.6 10.9 1.7 10.7 1.8 10.55 1.8
L 10.65 1.55
Q 10.75 1.3 10.75 1.2 10.75 1.05 10.6 0.85 10.5 0.7 10.3 0.5 9.85 0 9.55 0 9.3 0 8.95 0.35 8.75 0.55 8.45 0.9
L 7.75 1.6
Q 7.05 2.3 5.25 4.05
L 8.6 7.4 12.9 3.1
Q 12.7380859375 2.921875 12.4 2.55 12 2.1 11.65 1.85 11.3 1.6 11.15 1.6 Z"/>
</g>

<g id="Layer0_0_FILL">
<path fill="#8DA5F3" stroke="none" d="
M 2 14.05
L 1.05 15 2 15 2 14.05
M 15 1.05
L 14 2.05 14 3 13.05 3 3.05 13 4 13 4 15 12 15 12 13 14 13 14 15 15 15 15 1.05
M 12 5
L 14 5 14 7 12 7 12 5
M 14 11
L 12 11 12 9 14 9 14 11 Z"/>
</g>
</defs>

<g transform="matrix( 1, 0, 0, 1, 0,0) ">
<use xlink:href="#Layer1_0_FILL"/>
</g>

<g transform="matrix( 1, 0, 0, 1, 0.9,0.9) ">
<use xlink:href="#Layer0_0_FILL"/>
</g>
</svg>
