
<svg xmlns="http://www.w3.org/2000/svg" version="1.1" xmlns:xlink="http://www.w3.org/1999/xlink" preserveAspectRatio="none" x="0px" y="0px" width="10px" height="10px" viewBox="0 0 10 10">
<defs>
<g id="Layer0_0_FILL">
<path fill="#FFFFFF" stroke="none" d="
M 7.6 2.3
L 7.6 2.35
Q 6.5 1.25 5 1.25 3.45 1.25 2.35 2.3
L 2.3 2.35
Q 1.25 3.45 1.25 5 1.25 6.5 2.35 7.6
L 2.3 7.6
Q 3.45 8.75 5 8.75 6.5 8.75 7.55 7.6 7.6 7.6 7.6 7.55 8.75 6.5 8.75 5 8.75 3.45 7.6 2.3
M 6.7 3.3
Q 7.45 4 7.45 5 7.45 6 6.7 6.65 6.65 6.65 6.65 6.7 6 7.45 5 7.45 4 7.45 3.3 6.7 2.6 6 2.6 5 2.6 4 3.3 3.3 4 2.6 5 2.6 6 2.6 6.7 3.3 Z"/>
</g>
</defs>

<g transform="matrix( 1, 0, 0, 1, 0,0) ">
<use xlink:href="#Layer0_0_FILL"/>
</g>
</svg>
