
<svg xmlns="http://www.w3.org/2000/svg" version="1.1" xmlns:xlink="http://www.w3.org/1999/xlink" preserveAspectRatio="none" x="0px" y="0px" width="16px" height="16px" viewBox="0 0 16 16">
<defs>
<g id="Layer0_0_FILL">
<path fill="#FFFFFF" fill-opacity="0.2" stroke="none" d="
M 12.5 5.15
Q 12.371484375 4.946875 12.2 4.75 12.028515625 4.4947265625 11.8 4.25 10.25 2.75 8.05 2.75 5.9 2.75 4.25 4.25 3.334375 5.25703125 2.95 6.45 2.91875 6.6474609375 2.85 6.85 2.8078125 7.1205078125 2.75 7.4 2.75 7.719140625 2.75 8.05 2.75 8.45 2.8 8.8 2.9375 9.735546875 3.35 10.55 3.477734375 10.75390625 3.6 10.95 3.678515625 11.0767578125 3.75 11.2 3.982421875 11.51015625 4.25 11.8 5.9 13.35 8.05 13.35 10.25 13.35 11.8 11.8 12.6517578125 10.9482421875 13.05 9.9 13.1337890625 9.65546875 13.2 9.4 13.35 8.7587890625 13.35 8.05 13.35 7.85 13.35 7.65 13.298828125 7.0017578125 13.1 6.4 13.084765625 6.3498046875 13.05 6.3 12.9673828125 5.9939453125 12.8 5.7 12.735546875 5.5228515625 12.6 5.35 12.567578125 5.2494140625 12.5 5.15 Z"/>
</g>

<path id="Layer0_0_1_STROKES" stroke="#FFFFFF" stroke-width="1.5" stroke-linejoin="round" stroke-linecap="round" fill="none" d="
M 13.05 9.9
Q 12.6517578125 10.9482421875 11.8 11.8 10.25 13.35 8.05 13.35 5.9 13.35 4.25 11.8 3.982421875 11.51015625 3.775 11.2
M 2.975 6.45
Q 3.334375 5.25703125 4.25 4.25 5.9 2.75 8.05 2.75 10.25 2.75 11.8 4.25 12.028515625 4.4947265625 12.225 4.75"/>

<path id="Layer0_1_1_STROKES" stroke="#FFFFFF" stroke-width="1.5" stroke-linejoin="round" stroke-linecap="round" fill="none" d="
M 0.7 8.2
Q 1.4 8.65 2.1 8.85 4.2 9.4 6.9 8.2 8.95 7.1 10.95 7.1 12.45 7.05 14 7.6 14.65 7.85 15.3 8.2"/>
</defs>

<g transform="matrix( 1, 0, 0, 1, 0,0) ">
<use xlink:href="#Layer0_0_FILL"/>

<use xlink:href="#Layer0_0_1_STROKES"/>
</g>

<g transform="matrix( 1, 0, 0, 1, 0,0) ">
<use xlink:href="#Layer0_1_1_STROKES"/>
</g>
</svg>
