
<svg xmlns="http://www.w3.org/2000/svg" version="1.1" xmlns:xlink="http://www.w3.org/1999/xlink" preserveAspectRatio="none" x="0px" y="0px" width="16px" height="16px" viewBox="0 0 16 16">
<defs>
<g id="Layer0_0_FILL">
<path fill="#8DA5F3" stroke="none" d="
M 7.7 8.45
Q 8.85 8.55 9.65 9.35 10.7 10.4 10.7 11.75 10.7 12.3 10.55 12.8
L 14.8 12.8 14.8 6.7 7.7 6.7 7.7 8.45 Z"/>
</g>

<path id="Layer0_0_1_STROKES" stroke="#8DA5F3" stroke-width="1.5" stroke-linejoin="round" stroke-linecap="round" fill="none" d="
M 10.55 12.8
Q 10.3 13.5 9.65 14.15 8.7 15.1 7.25 15.1 5.9 15.1 4.95 14.15 3.9 13.1 3.9 11.75 3.9 10.75 4.55 9.85
L 1.15 9.85 9.8 0.95 9.8 6.1
M 4.55 9.85
Q 4.7 9.55 4.95 9.35 5.9 8.4 7.25 8.4 7.45 8.4 7.7 8.45
L 7.7 6.7 14.8 6.7 14.8 12.8 10.55 12.8
Q 10.7 12.3 10.7 11.75 10.7 10.4 9.65 9.35 8.85 8.55 7.7 8.45"/>
</defs>

<g transform="matrix( 1, 0, 0, 1, 0,0) ">
<use xlink:href="#Layer0_0_FILL"/>

<use xlink:href="#Layer0_0_1_STROKES"/>
</g>
</svg>
