
<svg xmlns="http://www.w3.org/2000/svg" version="1.1" xmlns:xlink="http://www.w3.org/1999/xlink" preserveAspectRatio="none" x="0px" y="0px" width="330px" height="330px" viewBox="0 0 330 330">
<defs>
<g id="Layer0_0_MEMBER_0_FILL">
<path fill="#8DA5F3" stroke="none" d="
M 328.3 126.65
Q 326.55 123.3 324.2 121.85 323.65 121.55 315.4 113.3 307.2 105.1 306.75 104.8 305.55 104 302.9 103.1 300.4 102.35 299.5 102.35 293.2 102.35 274.3 116.5 269.6 120 261.5 126.15 255.55 130.55 254.4 130.55 253.95 130.55 253.9 130.5 253.9 130.45 253.85 130.15 265.65 114 268.8 109.3 281.7 89.75 281.7 82.9 281.7 81.15 269.55 67.75 263.3 60.85 255.8 52.9 247.45 43.2 239.75 37.65 233.35 33.15 230 33.15 228.4 33.15 224.4 35.15 220.4 37.25 217.95 37.25 217.3 37.25 217.6 37.2 218.65 34.65 219.65 31.85 221.65 26.3 221.65 24.75 221.65 22.15 219 17.95 216.5 13.9 212.55 9.85 203.3 0.2 197.05 0.2 191.5 0.2 184.1 7.6 180.05 11.5 174.1 18.5 169.15 23.6 160.2 32.85 146.35 46.85 108.7 84
L 246.7 221.25
Q 257.55 210.4 275 192.9 303.25 166.35 316 152.75 330.05 137.75 330.05 133.5 330.05 130.15 328.3 126.65
M 63.75 129.75
Q 53.45 140.15 53.45 142.95 53.45 148.45 58.45 154.7 60.9 157.65 70.1 166.2 78.45 174.1 82.55 179.7 88.8 188.2 90.5 197.4
L 90.4 197.4
Q 91.35 209.85 75.45 219.5 67.15 224.55 54.4 229.55 50.9 231.65 37.65 237.8 26.25 243.15 19.95 247.65 0.15 261.65 0.15 287.2 0.15 306.15 15.8 318.95 29.45 330.1 44.65 330.1 50.2 330.1 53.45 329.65 57.5 329.05 60.3 327.4 75.65 318.2 88.2 299.95 95.7 288.95 109.55 261.7 116.5 248.2 124.7 242.65 129.25 239.5 132.85 239.5 141.6 239.5 154.35 251.2 158.35 254.9 162.5 259.5 165.95 263.5 166.15 263.75 175.1 273.1 178.5 275.25 181.85 277.5 187.15 277.5 190.9 277.5 194.95 273.95 199.55 269.05 202 266.5 207.4 261.1 214.65 253.5 221.9 245.8 221.9 245.65 221.9 244.75 153.55 176.5 119.4 142.3 85.2 108.35
L 84.1 108.35
Q 79.05 114.3 63.75 129.75 Z"/>
</g>
</defs>

<g transform="matrix( 1, 0, 0, 1, 0,0) ">
<use xlink:href="#Layer0_0_MEMBER_0_FILL"/>
</g>
</svg>
